<svg width="280" height="37" viewBox="0 0 280 37" fill="none" xmlns="http://www.w3.org/2000/svg">
<path d="M15.6416 8.76752C15.6416 13.6089 15.7379 18.089 15.8825 18.8116C16.027 19.5342 16.4365 20.5459 16.7978 21.0758C17.713 22.3764 20.0976 23.6048 22.0968 23.7734L23.5902 23.918V16.2103C23.5902 8.02084 23.4697 6.62382 22.4822 4.64872C21.3019 2.21598 18.4356 1.71661e-05 16.4365 1.71661e-05H15.6416V8.76752Z" fill="#193D9E"/>
<path d="M27.6855 9.32152C27.6855 15.2227 27.7819 19.0043 27.9505 19.6065C28.5286 21.702 31.1781 23.5326 33.9962 23.7975L35.3932 23.918V15.7285C35.3932 8.96022 35.321 7.32233 35.0079 6.23844C34.5502 4.64872 33.4663 2.91449 32.3102 1.90285C31.2504 0.96348 29.2512 1.71661e-05 28.36 1.71661e-05H27.6855V9.32152Z" fill="#193D9E"/>
<path d="M9.37928 12.4528C5.91081 13.1031 2.15331 16.3548 0.68403 19.9918C-0.110827 21.991 -0.231259 25.6763 0.419078 27.8682C1.69567 32.011 4.99552 35.1423 9.25884 36.2503C11.9084 36.9247 11.7879 37.0451 11.7879 33.7694C11.7879 30.5177 11.4266 28.8557 10.4632 27.4346C9.71649 26.3748 7.81365 25.1464 6.53706 24.9055C5.52543 24.7128 5.5736 24.0384 6.60932 23.8457C8.48807 23.4362 10.1019 22.1356 11.0894 20.2327C11.5712 19.2933 11.6675 18.7153 11.7398 15.7044L11.8361 12.2842L10.9208 12.3082C10.3909 12.3323 9.71649 12.4046 9.37928 12.4528Z" fill="#193D9E"/>
<path d="M39.5358 15.9694C39.6081 19.6065 39.6321 19.7028 40.3307 20.859C41.2219 22.256 42.643 23.3158 44.2327 23.7253C45.702 24.0866 45.8946 24.6887 44.6181 24.9296C42.6189 25.2909 40.8606 26.712 39.9934 28.663C39.5599 29.5783 39.4876 30.2527 39.4876 33.1672C39.4876 37.0933 39.2949 36.8524 41.8481 36.2503C43.9677 35.7445 45.6297 34.8533 47.2435 33.2876C49.5799 31.0476 50.8324 28.6148 51.1937 25.5559C51.5309 22.545 50.2784 18.7153 48.1588 16.3066C46.2559 14.1629 42.5948 12.2842 40.2825 12.2842H39.4395L39.5358 15.9694Z" fill="#193D9E"/>
<path d="M158.475 23.9661V34.9255H159.559C160.835 34.9255 161.943 34.4197 162.377 33.6489C162.593 33.2876 162.738 31.4811 162.81 27.7718L162.931 22.4246L170.157 29.2652C174.131 33.0227 177.455 36.1057 177.575 36.1057C177.672 36.1298 177.744 31.1439 177.744 25.05V13.9702H176.66C176.034 13.9702 175.239 14.1388 174.853 14.3315C173.529 15.03 173.408 15.584 173.408 21.437V26.7602L166.134 19.8714C162.112 16.0898 158.764 13.0067 158.667 13.0067C158.547 13.0067 158.475 17.9445 158.475 23.9661Z" fill="#193D9E"/>
<path d="M110.23 13.8257C106.809 14.7892 105.051 17.8963 105.991 21.2925C106.352 22.5932 108.062 24.3274 109.748 25.0982C110.519 25.4595 111.892 26.0858 112.831 26.4952C114.878 27.4105 115.312 27.7718 115.505 28.8075C115.697 29.8914 115.432 30.5418 114.565 31.0958C113.12 31.9629 110.712 31.5052 109.459 30.1082C108.327 28.8557 106.641 28.5667 105.316 29.3856C104.353 29.9637 104.329 30.2527 105.196 31.4571C106.231 32.8782 107.797 34.1788 109.314 34.8774C110.447 35.4073 111.025 35.5036 112.831 35.5036C114.662 35.5277 115.192 35.4313 116.324 34.9014C119.142 33.5767 120.25 31.9147 120.25 29.0484C120.25 26.0135 118.636 24.0143 115.023 22.6173C111.555 21.2925 110.736 20.7145 110.422 19.5101C110.23 18.6671 111.049 17.6555 112.109 17.4387C113.192 17.246 114.421 17.6796 115.625 18.6912C116.203 19.1729 116.878 19.5101 117.263 19.5101C118.058 19.5101 120.033 18.4744 120.129 17.9927C120.25 17.3664 117.648 14.8133 116.275 14.2111C114.71 13.5367 111.868 13.344 110.23 13.8257Z" fill="#193D9E"/>
<path d="M141.494 13.7293C135.231 15.03 131.715 20.4735 132.943 27.001C133.979 32.5891 139.736 36.3947 145.709 35.4795C151.056 34.6364 153.995 30.9994 154.525 24.5201L154.693 22.6413H149.346C143.469 22.6413 143.686 22.5691 144.36 24.1829C144.914 25.5076 145.974 26.0857 148.142 26.2061C150.286 26.3266 150.358 26.4229 149.587 28.0608C147.805 31.9147 142.578 32.7095 139.471 29.6023C138.242 28.3739 137.688 27.0733 137.568 25.0259C137.375 21.8465 138.507 19.6546 140.988 18.3539C142.024 17.7999 142.506 17.7036 144.143 17.7277C145.805 17.7277 146.287 17.824 147.636 18.4984C148.792 19.0765 149.539 19.2692 150.478 19.2692C151.803 19.2692 153.417 18.7393 153.417 18.3298C153.417 18.1853 152.839 17.4868 152.116 16.7401C149.539 14.1147 145.372 12.9344 141.494 13.7293Z" fill="#193D9E"/>
<path d="M269.996 13.7052C266.816 14.741 265.106 17.1978 265.516 20.1363C265.901 22.9545 267.25 24.1829 272.212 26.2543C274.909 27.3623 275.776 28.5666 275.03 30.2045C274.692 30.903 273.464 31.5534 272.477 31.5534C271.537 31.5293 270.068 30.8308 268.839 29.771C267.804 28.9279 267.346 28.7834 266.142 28.8798C265.347 28.952 264.215 29.6505 264.215 30.06C264.215 30.5417 265.516 32.3482 266.503 33.1913C268.165 34.6846 269.658 35.2386 272.091 35.359C275.608 35.5277 277.944 34.4197 279.269 31.9869C280.594 29.5542 280.064 26.0857 278.113 24.4237C277.679 24.0625 276.523 23.4121 275.536 22.9545C271.561 21.148 270.694 20.6662 270.333 19.9436C269.104 17.5832 273.223 16.3307 275.15 18.4985C275.391 18.7875 275.969 19.1247 276.427 19.2933C277.149 19.5342 277.414 19.486 278.546 18.9079C279.269 18.5707 279.871 18.1131 279.871 17.9445C279.871 17.2219 277.776 15.0541 276.403 14.3315C275.198 13.7293 274.692 13.6089 272.814 13.5607C271.585 13.5366 270.333 13.5848 269.996 13.7052Z" fill="#193D9E"/>
<path d="M65.9824 24.4478V34.9255H70.8961C75.1112 34.9255 76.0265 34.8532 77.3513 34.4437C80.2176 33.5525 82.1204 31.9147 83.4211 29.1447C84.1437 27.6513 84.1678 27.4586 84.1678 24.4478C84.1678 21.437 84.1437 21.2684 83.397 19.7028C82.0963 16.9569 79.8563 15.1745 76.6528 14.3315C75.6652 14.0665 73.9792 13.9702 70.6311 13.9702H65.9824V24.4478ZM75.5207 18.4262C76.99 18.8597 78.3629 19.9677 79.0614 21.2684C79.784 22.6413 79.8322 26.1821 79.1337 27.4586C77.9053 29.795 76.3637 30.6381 73.1602 30.7826L70.7997 30.8789V24.4719V18.0649H72.5581C73.5215 18.0649 74.8704 18.2335 75.5207 18.4262Z" fill="#193D9E"/>
<path d="M88.3828 24.4478V34.9255H93.8745C98.8605 34.9255 99.4145 34.8773 100.113 34.4437C100.932 33.9379 101.462 33.0949 101.751 31.8424L101.919 31.0716H97.3189H92.7184V28.8075V26.5434L95.8015 26.4711C98.4992 26.3747 98.9568 26.3025 99.6071 25.8448C100.426 25.2668 101.149 23.9902 101.149 23.1472C101.149 22.6413 101.052 22.6413 96.9335 22.6413H92.7184V20.2327V17.824H95.7292C98.9809 17.824 99.9203 17.6072 100.811 16.5956C101.269 16.0657 101.871 14.7169 101.871 14.187C101.871 14.0665 98.8364 13.9702 95.127 13.9702H88.3828V24.4478Z" fill="#193D9E"/>
<path d="M126.801 14.3074C125.909 14.7169 124.874 15.8008 124.536 16.692C124.368 17.1255 124.271 20.5458 124.271 26.158V34.9255H124.994C126.415 34.9255 127.788 33.8416 128.487 32.2278C128.8 31.4811 128.848 29.9396 128.848 22.6413V13.9702H128.198C127.812 13.9943 127.21 14.1388 126.801 14.3074Z" fill="#193D9E"/>
<path d="M193.159 24.4479V34.9737L198.41 34.8773C204.456 34.7569 205.347 34.5401 207.033 32.8782C209.514 30.3972 208.84 25.869 205.756 24.1588L204.793 23.6048L205.925 22.4487C206.889 21.5093 207.105 21.0998 207.25 20.1123C207.635 17.7036 206.648 15.8008 204.48 14.741C203.179 14.1147 203.035 14.0907 198.169 14.0184L193.159 13.9461V24.4479ZM201.565 17.9445C202.842 18.5948 203.035 20.4254 201.903 21.4852C201.421 21.9429 200.987 22.0633 199.398 22.1356L197.495 22.2078V19.8955V17.5832H199.181C200.217 17.5832 201.156 17.7277 201.565 17.9445ZM202.312 26.0617C203.685 26.7602 204.167 27.8922 203.685 29.3134C203.251 30.6622 201.83 31.3125 199.374 31.3125H197.495V28.4222V25.5318H199.374C200.843 25.5318 201.493 25.6522 202.312 26.0617Z" fill="#193D9E"/>
<path d="M208.888 14.1388C208.936 14.2592 210.574 17.0533 212.525 20.3772L216.042 26.4229V30.6622V34.9255H218.33H220.618V30.5899V26.2302L224.231 20.0882L227.844 13.922L225.821 13.9943C222.834 14.1388 222.232 14.6205 220.04 18.7152C219.101 20.4735 218.258 21.8224 218.185 21.726C218.089 21.6297 217.342 20.3049 216.548 18.7875C214.307 14.6205 213.489 13.9702 210.502 13.9702C209.562 13.9702 208.84 14.0424 208.888 14.1388Z" fill="#193D9E"/>
<path d="M229.771 14.1388C229.771 14.2592 229.891 14.7169 230.011 15.1745C230.493 16.8846 232.372 18.0408 234.781 18.0649H235.551V26.4952V34.9255H237.719H239.887V26.5193V18.1371L241.332 17.9926C243.813 17.7277 245.017 16.7642 245.523 14.6205L245.668 13.9702H237.719C233.359 13.9702 229.771 14.0424 229.771 14.1388Z" fill="#193D9E"/>
<path d="M248.317 24.4478V34.9255H253.641C258.024 34.9255 259.108 34.8532 259.783 34.5401C260.674 34.1065 261.493 32.9745 261.71 31.8183L261.878 31.0716H257.253H252.653V28.663V26.2543H255.616C258.121 26.2543 258.675 26.1821 259.349 25.7726C260.288 25.1945 261.083 23.9661 261.083 23.0508V22.4005H256.868H252.653V20.1363V17.8722L255.856 17.7759C258.265 17.7036 259.229 17.5832 259.807 17.27C260.722 16.7883 261.445 15.8008 261.685 14.7409L261.854 13.9702H255.086H248.317V24.4478Z" fill="#193D9E"/>
<path d="M21.1815 25.1945C18.6765 25.869 17.2313 27.001 16.3401 29.0243C15.9065 30.0119 15.7861 30.8067 15.6898 33.4081L15.5693 36.6116H19.5918H23.5902V30.7104V24.8092L23.0603 24.8332C22.7471 24.8332 21.9041 25.0019 21.1815 25.1945Z" fill="#193D9E"/>
<path d="M33.0328 25.1945C31.3226 25.6522 30.4796 26.1098 29.3957 27.1937C28.0468 28.5426 27.6855 29.8433 27.6855 33.5285V36.6116H31.5394H35.3932V30.7104V24.8092L34.8633 24.8332C34.5502 24.8332 33.7313 25.0019 33.0328 25.1945Z" fill="#193D9E"/>
</svg>
