<svg width="16" height="16" viewBox="0 0 16 16" fill="none" xmlns="http://www.w3.org/2000/svg">
<g clip-path="url(#clip0_61_5112)">
<path d="M8.00004 1.33337L9.34134 4.82076C9.52935 5.30958 9.62336 5.55399 9.76954 5.75958C9.8991 5.94179 10.0583 6.10098 10.2405 6.23054C10.4461 6.37672 10.6905 6.47073 11.1793 6.65874L14.6667 8.00004L11.1793 9.34134C10.6905 9.52935 10.4461 9.62336 10.2405 9.76954C10.0583 9.8991 9.8991 10.0583 9.76954 10.2405C9.62336 10.4461 9.52935 10.6905 9.34135 11.1793L8.00004 14.6667L6.65874 11.1793C6.47073 10.6905 6.37673 10.4461 6.23054 10.2405C6.10098 10.0583 5.94179 9.8991 5.75958 9.76954C5.55399 9.62336 5.30958 9.52935 4.82076 9.34134L1.33337 8.00004L4.82076 6.65874C5.30958 6.47073 5.55399 6.37673 5.75958 6.23054C5.94179 6.10098 6.10098 5.94179 6.23054 5.75958C6.37672 5.55399 6.47073 5.30958 6.65874 4.82076L8.00004 1.33337Z" stroke="#222222" stroke-width="2" stroke-linecap="round" stroke-linejoin="round"/>
</g>
<defs>
<clipPath id="clip0_61_5112">
<rect width="16" height="16" fill="white"/>
</clipPath>
</defs>
</svg>
