<svg width="28" height="27" viewBox="0 0 28 27" fill="none" xmlns="http://www.w3.org/2000/svg">
<g opacity="0.7">
<path d="M12.5421 13.4919C12.5421 14.1128 13.0526 14.6162 13.6823 14.6162C14.312 14.6162 14.8225 14.1128 14.8225 13.4919C14.8225 12.8709 14.312 12.3675 13.6823 12.3675C13.0526 12.3675 12.5421 12.8709 12.5421 13.4919Z" stroke="#3A3A3E" stroke-width="2" stroke-linecap="round" stroke-linejoin="round"/>
<path d="M12.5421 21.3621C12.5421 21.983 13.0526 22.4864 13.6823 22.4864C14.312 22.4864 14.8225 21.983 14.8225 21.3621C14.8225 20.7411 14.312 20.2378 13.6823 20.2378C13.0526 20.2378 12.5421 20.7411 12.5421 21.3621Z" stroke="#3A3A3E" stroke-width="2" stroke-linecap="round" stroke-linejoin="round"/>
<path d="M12.5421 5.62163C12.5421 6.24258 13.0526 6.74595 13.6823 6.74595C14.312 6.74595 14.8225 6.24258 14.8225 5.62163C14.8225 5.00069 14.312 4.49732 13.6823 4.49732C13.0526 4.49732 12.5421 5.00069 12.5421 5.62163Z" stroke="#3A3A3E" stroke-width="2" stroke-linecap="round" stroke-linejoin="round"/>
</g>
</svg>
